<svg width="48" height="34" viewBox="0 0 48 34" fill="none" xmlns="http://www.w3.org/2000/svg">
<path d="M47.7242 10.5205C47.4895 10.2339 47.1392 10.0666 46.7717 10.0666H42.1002C40.9474 7.02338 39.4455 4.0417 37.7384 2.91618C31.833 -0.972061 16.1692 -0.972061 10.2637 2.91618C8.5554 4.04293 7.05969 7.0283 5.90072 10.0666H1.22923C0.858065 10.0666 0.509024 10.2339 0.27674 10.5205C0.0432266 10.8058 -0.0501787 11.1835 0.0260203 11.5463L0.717957 14.902C0.835943 15.4739 1.33984 15.8823 1.92117 15.8823H3.30504C1.9691 17.4248 1.3214 19.3671 1.3128 21.3106C1.3042 23.7117 2.2149 25.8815 3.88022 27.4167C3.89865 27.4327 3.91709 27.4437 3.9343 27.4597V32.1549C3.9343 33.1722 4.7602 34 5.77782 34H10.0868C11.1044 34 11.9303 33.1722 11.9303 32.1549V30.268H36.0694V32.1549C36.0694 33.1722 36.8953 34 37.9129 34H42.2219C43.237 34 44.0654 33.1722 44.0654 32.1549V27.552C45.8327 25.932 46.6771 23.7031 46.6881 21.4779C46.6955 19.468 46.0183 17.4544 44.6037 15.8799H46.0798C46.6636 15.8799 47.1674 15.4715 47.283 14.8983L47.9761 11.5439C48.0474 11.1835 47.9577 10.8083 47.7242 10.5205ZM12.2879 5.9975C16.9951 2.8965 31.0046 2.8965 35.7093 5.9975C36.6237 6.59778 37.7999 9.0247 38.8777 11.9965H9.12198C10.1974 9.02593 11.3735 6.60024 12.2879 5.9975ZM6.77456 21.7731C6.77456 19.7681 8.39932 18.1444 10.4014 18.1444C12.4059 18.1444 14.0282 19.7681 14.0282 21.7731C14.0282 23.7781 12.4059 25.4031 10.4014 25.4031C8.39932 25.4031 6.77456 23.7781 6.77456 21.7731ZM37.6462 25.4031C35.6442 25.4031 34.0194 23.7781 34.0194 21.7731C34.0194 19.7681 35.6442 18.1444 37.6462 18.1444C39.6508 18.1444 41.2731 19.7681 41.2731 21.7731C41.2731 23.7781 39.6483 25.4031 37.6462 25.4031Z" fill="white"/>
</svg>

