<svg width="48" height="48" viewBox="0 0 48 48" fill="none" xmlns="http://www.w3.org/2000/svg">
<path d="M23.9994 0C10.745 0 0 10.7456 0 24.0001C0 37.2545 10.745 48 23.9994 48C37.2537 48 48 37.2541 48 24.0001C47.9998 10.7451 37.2537 0 23.9994 0ZM34.753 34.7531C34.753 36.3636 33.4476 37.6691 31.8373 37.6691H16.1625C14.5516 37.6691 13.2465 36.3636 13.2465 34.7531V13.2465C13.2465 11.6359 14.5519 10.3304 16.1625 10.3304H28.4653V16.1625H34.753V34.7531ZM29.7103 14.9172V10.3301L34.753 14.9172H29.7103Z" fill="white"/>
</svg>

