<svg width="38" height="28" viewBox="0 0 38 28" fill="none" xmlns="http://www.w3.org/2000/svg">
<path d="M4.58624 8.90916C7.11915 8.90916 9.17248 6.91477 9.17248 4.45458C9.17248 1.99438 7.11915 0 4.58624 0C2.05333 0 0 1.99438 0 4.45458C0 6.91477 2.05333 8.90916 4.58624 8.90916Z" transform="translate(11.7925 10.1816)" fill="white"/>
<path d="M35.3793 5.09091H19.6552L17.0345 2.35582e-07H2.62069C1.17928 2.35582e-07 0 1.14542 0 2.54545V25.4545C0 26.8545 1.17928 28 2.62069 28H35.3793C36.8207 28 38 26.8545 38 25.4545V7.63636C38 6.23633 36.8207 5.09091 35.3793 5.09091ZM27.1242 25.9636L20.0482 19.0908C19 19.8545 17.8207 20.3636 16.3793 20.3636C13.1034 20.3636 10.4828 17.8181 10.4828 14.6363C10.4828 11.4545 13.1034 8.90909 16.3793 8.90909C19.6551 8.90909 22.2758 11.4545 22.2758 14.6363C22.2758 16.0363 21.7517 17.1818 20.9654 18.2L27.9102 24.9454L27.1242 25.9636Z" fill="white"/>
</svg>

