<svg width="50" height="47" viewBox="0 0 50 47" fill="none" xmlns="http://www.w3.org/2000/svg">
<path d="M5.57868 15.7836C6.1314 16.2581 6.95023 16.2375 7.47224 15.7114C7.97377 15.2059 8.01472 14.4219 7.59506 13.8751L7.57459 13.8545C7.56436 13.8338 7.54389 13.8132 7.53365 13.8029L4.09455 9.67647C3.95125 9.5011 3.85914 9.28446 3.8489 9.04719L3.34737 1.27919C3.28595 0.557067 2.6923 -3.14821e-07 1.95535 -3.14821e-07C1.23887 -3.14821e-07 0.655451 0.536435 0.573568 1.23793V1.24824C0.573568 1.27919 0.573567 1.31014 0.563332 1.34109L0.01062 9.87248C0.000384612 9.92406 0.000383988 9.98595 0.000383988 10.0375V10.0582C0.000383988 10.0685 0.000383988 10.0788 0.000383988 10.0891C0.000383988 10.1097 0.000383988 10.1201 0.000383988 10.1304C-0.00985143 10.6462 0.184622 11.162 0.573568 11.554C0.655451 11.6365 0.737334 11.7087 0.829453 11.7706L5.57868 15.7836Z" transform="translate(31.7295 6.49902)" fill="white"/>
<path d="M15.3224 7.87053e-08C8.21904 7.87053e-08 2.18014 4.63191 6.2472e-07 11.0485C1.41249 11.2136 2.78403 11.523 4.1044 11.9873C5.83419 7.43788 10.2149 4.19864 15.3224 4.19864C21.9447 4.19864 27.3388 9.63521 27.3388 16.3097C27.3388 22.3549 22.9273 27.3685 17.175 28.2763C17.2671 29.0604 17.3183 29.865 17.3183 30.6697C17.3183 31.2886 17.2876 31.8973 17.2364 32.5059C25.261 31.5465 31.5148 24.6554 31.5148 16.3097C31.5046 7.31409 24.2477 7.87053e-08 15.3224 7.87053e-08Z" transform="translate(18.4854)" fill="white"/>
<path d="M31.0235 13.9267L28.9355 13.9164C28.608 12.1936 27.9427 10.5224 26.9294 9.01624L28.4135 7.53073C28.9458 6.99429 28.956 6.11743 28.4237 5.58099L26.9294 4.07485C26.3971 3.53841 25.5271 3.5281 24.9949 4.06453L23.5107 5.55004C22.0164 4.51844 20.3685 3.83758 18.6592 3.49715L18.6694 1.39267C18.6694 0.62928 18.0655 0.0103164 17.3081 0.0103164L15.1996 -3.14821e-07C14.4422 -3.14821e-07 13.828 0.608648 13.828 1.37204L13.8178 3.4662C12.0983 3.786 10.4299 4.45654 8.92528 5.47783L7.47185 4.01295C6.93961 3.47652 6.0696 3.4662 5.53736 4.01295L4.04299 5.5191C3.51075 6.05553 3.50051 6.9324 4.03275 7.46883L5.46571 8.9234C4.43193 10.4295 3.74616 12.1214 3.40839 13.8545L1.38178 13.8442C0.62436 13.8442 0.0102354 14.4528 0.0102354 15.2162L0 17.3413C0 18.1047 0.603889 18.7237 1.36131 18.7237L3.37769 18.734C3.69498 20.4774 4.37052 22.1795 5.39406 23.696L3.97134 25.1196C3.4391 25.6561 3.42886 26.5329 3.96111 27.0694L5.45548 28.5755C5.98772 29.1119 6.85773 29.1223 7.38997 28.5755L8.83316 27.1725C10.3378 28.2144 12.0164 28.9056 13.7462 29.2357L13.7359 31.268C13.7359 32.0314 14.3398 32.6504 15.0972 32.6504L17.2057 32.6607C17.9632 32.6607 18.5773 32.052 18.5773 31.2886L18.5875 29.246C20.3173 28.9159 21.9857 28.2351 23.4903 27.1931L24.9232 28.6477C25.4555 29.1842 26.3255 29.1945 26.8577 28.658L28.3521 27.1519C28.8843 26.6154 28.8946 25.7386 28.3623 25.2022L26.9089 23.7373C27.9324 22.2311 28.608 20.5496 28.9253 18.8165L31.0031 18.8268C31.7605 18.8268 32.3746 18.2182 32.3746 17.4548L32.3848 15.3297C32.3951 14.5457 31.781 13.9267 31.0235 13.9267ZM21.1771 21.3646C18.4135 24.1293 13.9509 24.119 11.2078 21.3336C8.46469 18.5483 8.47492 14.0505 11.2385 11.2858C14.002 8.52107 18.4647 8.53139 21.2078 11.3167C23.9509 14.1021 23.9304 18.5999 21.1771 21.3646Z" transform="translate(0 14.3394)" fill="white"/>
</svg>

