<svg width="56" height="33" viewBox="0 0 56 33" fill="none" xmlns="http://www.w3.org/2000/svg">
<path d="M13.5333 2.59288C11.6666 0.707139 3.7333 0.235787 1.16659 4.04629e-08C0.933297 4.04629e-08 0.699891 4.21488e-07 0.466594 0.235677C0.233297 0.471464 0 0.942926 0 1.1786V22.3928C0 23.0999 0.466703 23.5714 1.1667 23.5714H8.1667C8.63341 23.5714 9.1 23.3357 9.33341 22.8643C9.33341 22.1571 13.5334 9.66428 14.0001 3.53581C14 3.30002 14 2.82867 13.5333 2.59288Z" fill="white"/>
<path d="M18.6964 3.29996C16.3631 2.59282 14.2631 1.65 12.3964 0.942861C8.19642 -0.942881 6.32972 4.59422e-05 2.59642 3.77142C0.963128 5.42138 -0.203576 7.77858 0.0297205 8.7214C0.0297205 8.95707 0.0297219 8.95707 0.496425 9.19286C1.66313 9.66432 3.29642 9.9 4.92972 7.30712C5.16302 7.07144 5.39642 6.83565 5.86302 6.83565C6.56302 6.83565 6.79632 6.59998 7.49632 6.36419C7.96302 6.12851 8.42961 5.89273 9.12961 5.65705C9.36291 5.65705 9.36291 5.65705 9.59632 5.65705C9.82961 5.65705 10.2963 5.89273 10.5296 5.89273C11.6964 7.07144 13.7964 8.7214 15.8964 10.6071C19.1631 13.2 22.4297 16.0286 24.0631 18.15H24.2964C22.6631 13.4357 19.8631 5.42137 18.6964 3.29996Z" transform="translate(19.8037 4.94995)" fill="white"/>
<path d="M15.1667 0C6.0667 0 0.933407 2.35709 0.700001 2.35709C0.466704 2.59277 0.233295 2.82856 -1.62888e-06 3.06423C-1.62888e-06 3.29991 1.2517e-06 3.77138 0.233298 4.00705C1.6333 6.36415 6.3 19.3284 7 22.6284C7.2333 23.0998 7.7 23.5712 8.1667 23.5712H15.1667C15.8667 23.5712 16.3334 23.0997 16.3334 22.3926V1.17838C16.3334 0.471463 15.8667 0 15.1667 0Z" transform="translate(39.6665 2.35718)" fill="white"/>
<path d="M30.0999 18.3856C29.1666 16.2642 25.1999 13.2 21.6999 10.3714C19.8333 8.72135 17.9666 7.30707 16.5666 6.12847C16.3333 6.36415 15.8666 6.36415 15.8666 6.59993C15.1666 6.83561 14.9333 7.0714 13.9999 7.0714C12.1333 9.42849 9.79989 10.3713 7.2333 9.42849C6.06659 9.19282 5.36659 8.24989 5.1333 7.30707C4.66659 4.94998 6.76659 1.64996 8.4 8.22745e-07H3.7333C2.8 4.7143 1.16659 10.8428 -2.06947e-07 14.1428C0.933297 15.0856 1.8667 16.2642 2.5667 16.7357C7 20.507 12.1334 24.2785 13.0667 24.9857C13.7667 25.4571 15.1667 25.9285 15.8667 25.9285C16.1 25.9285 16.3334 25.9285 16.5667 25.9285L12.8333 22.157C12.3666 21.6855 12.3666 20.9784 12.8333 20.507C13.3 20.0357 14 20.0356 14.4666 20.507L19.1333 25.2213C19.6 25.6928 20.0666 25.457 20.5333 25.457C21.2333 25.2213 21.4666 24.7499 21.7 24.0427L16.3333 18.6213C15.8666 18.1498 15.8666 17.4427 16.3333 16.9713C16.8 16.5 17.5 16.4999 17.9666 16.9713L23.7999 22.8641C24.0332 23.0998 24.9666 23.0998 25.6666 22.8641C25.8999 22.6285 26.3666 22.3927 26.5999 21.9213L20.0666 15.3213C19.5999 14.8498 19.5999 14.1427 20.0666 13.6713C20.5333 13.2 21.2333 13.1999 21.6999 13.6713L28.4666 20.507C28.9333 20.7427 29.3999 20.507 29.8666 20.2714C30.0999 20.0356 30.5666 19.3284 30.0999 18.3856Z" transform="translate(12.1333 7.07153)" fill="white"/>
</svg>

