<svg width="30" height="50" viewBox="0 0 30 50" fill="none" xmlns="http://www.w3.org/2000/svg">
<path d="M14.9973 0C6.71425 0 3.26798e-07 6.85246 3.26798e-07 15.306C3.26798e-07 24.9454 8.97375 35.9836 8.97375 35.9836H21.5509C21.5509 35.9836 30 24.9454 30 15.306C29.9945 6.85246 23.2803 0 14.9973 0ZM19.4253 25.8142C18.6702 26.623 17.6529 27.1803 16.4858 27.4371V27.8469C16.4858 28.5573 15.9182 29.1366 15.2222 29.1366H14.676C13.98 29.1366 13.4124 28.5573 13.4124 27.8469V27.4098C12.7967 27.2732 12.2184 27.0655 11.683 26.7814C10.9708 26.4098 10.3551 25.8033 9.84644 24.9836C9.50912 24.4426 9.26288 23.8087 9.11291 23.1038C9.038 22.7596 9.10755 22.4153 9.3003 22.1202C9.49311 21.8306 9.7983 21.6284 10.1356 21.5683L10.6818 21.4699C10.7514 21.459 10.8263 21.4481 10.9013 21.4481C11.4795 21.4481 11.9828 21.847 12.1221 22.4208C12.2666 23 12.4594 23.4481 12.695 23.7596C13.225 24.4536 14.1085 24.8689 15.0508 24.8689C15.2115 24.8689 15.3721 24.8579 15.5274 24.8306C16.202 24.7268 16.7963 24.4044 17.214 23.9235C17.653 23.4153 17.8779 22.765 17.8779 22C17.8779 21.3607 17.7279 20.847 17.4334 20.4755C16.8659 19.7651 15.8647 19.459 14.9598 19.246C13.7658 18.9672 12.6842 18.6886 11.592 18.0656C10.8637 17.6503 10.3016 17.071 9.90539 16.3388C9.51447 15.612 9.32178 14.7869 9.32178 13.8743C9.32178 12.2568 9.89468 10.9235 11.0244 9.91257C11.6456 9.36066 12.4701 8.96175 13.4178 8.7541V8.12568C13.4178 7.4153 13.9853 6.83607 14.6814 6.83607H15.2276C15.9236 6.83607 16.4912 7.4153 16.4912 8.12568V8.77049C17.3693 8.97268 18.1349 9.3388 18.7239 9.83607C19.3986 10.4098 19.8964 11.1421 20.2017 12.0109C20.3301 12.3716 20.2927 12.765 20.1 13.0984C19.9073 13.4317 19.5752 13.6557 19.2004 13.7158L18.6704 13.7978C18.6062 13.8087 18.5473 13.8142 18.483 13.8142C17.9422 13.8142 17.4603 13.4645 17.289 12.9399C17.1712 12.5902 17.016 12.3005 16.8286 12.0874C16.3948 11.5902 15.7042 11.306 14.9385 11.306C14.1139 11.306 13.3429 11.6284 12.8717 12.1694C12.4916 12.6066 12.3042 13.1148 12.3042 13.7158C12.3042 14.3115 12.4648 14.8087 12.7806 15.1967C13.466 16.0383 14.6386 16.2787 15.7737 16.5137C16.4751 16.6557 17.1979 16.8087 17.8404 17.0929C18.5258 17.3989 19.0987 17.7869 19.5378 18.235C19.9821 18.6885 20.3301 19.235 20.5657 19.8579C20.8013 20.4755 20.9191 21.1476 20.9191 21.8634C20.9084 23.4317 20.4104 24.7596 19.4253 25.8142Z" fill="white"/>
<path d="M12.6307 0H0V3.32787H12.6307V0Z" transform="translate(8.6792 37.7925)" fill="white"/>
<path d="M6.53597e-07 0.748633C0.0321262 4.28415 2.84311 7.13661 6.31268 7.13661C9.78224 7.13661 12.5986 4.28415 12.6254 0.748633V1.3341e-06H6.53597e-07V0.748633Z" transform="translate(8.6792 42.8635)" fill="white"/>
</svg>

