<svg width="47" height="41" viewBox="0 0 47 41" fill="none" xmlns="http://www.w3.org/2000/svg">
<path d="M3.81597 5.63189C2.41152 5.06939 2.00576 4.72924 2.00576 4.11499C2.00576 3.62343 2.3784 3.04915 3.42902 3.04915C4.3583 3.04915 5.07099 3.41524 5.07735 3.41841C5.15233 3.45838 5.23645 3.47969 5.31978 3.47969C5.52312 3.47969 5.70301 3.35674 5.77759 3.16641L6.03286 2.51444C6.12175 2.27687 5.9869 2.06987 5.81495 1.99562C5.24281 1.74679 4.12463 1.55422 4.11323 1.55224C4.09522 1.54906 4.03256 1.53569 4.03256 1.4625L4.02898 0.516706C4.02898 0.231883 3.79093 1.21173e-07 3.4987 1.21173e-07H3.04075C2.74879 1.21173e-07 2.51087 0.23175 2.51087 0.516838L2.51206 1.51121C2.51206 1.58744 2.4294 1.62053 2.3992 1.62754C0.987726 1.96346 0.105606 2.99647 0.105606 4.29949C0.105606 5.92386 1.44952 6.65789 2.9006 7.20887C4.06065 7.6639 4.53383 8.12528 4.53383 8.80201C4.53383 9.53842 3.86366 10.0527 2.90351 10.0527C2.08365 10.0527 0.974083 9.53352 0.963088 9.52823C0.892084 9.49461 0.81684 9.47767 0.739477 9.47767C0.528319 9.47767 0.34445 9.60526 0.270929 9.80286L0.0271837 10.4622C-0.0594519 10.7084 0.0739456 10.9083 0.2447 10.9972C0.926128 11.3518 2.24474 11.5596 2.30342 11.5687C2.31919 11.571 2.39946 11.5992 2.39946 11.6725V12.6625C2.39946 12.9473 2.63751 13.1792 2.92987 13.1792H3.40306C3.69556 13.1792 3.9336 12.9474 3.9336 12.6625V11.6206C3.9336 11.5232 4.00553 11.5146 4.02037 11.511C5.52404 11.1735 6.45028 10.0743 6.45028 8.69414C6.44988 7.2765 5.66194 6.36049 3.81597 5.63189Z" transform="translate(31.3472 5.82764)" fill="white"/>
<path d="M12.4281 1.02997e-07C5.56402 1.02997e-07 -5.98316e-07 5.55949 -5.98316e-07 12.4171C-5.98316e-07 19.2748 5.56402 24.8345 12.4281 24.8345C19.2919 24.8345 24.8561 19.2748 24.8561 12.4171C24.8561 5.55949 19.2919 1.02997e-07 12.4281 1.02997e-07ZM12.4281 21.9567C7.15473 21.9567 2.88017 17.6855 2.88017 12.4172C2.88017 7.14892 7.15473 2.87788 12.4281 2.87788C17.7012 2.87788 21.9757 7.14892 21.9757 12.4172C21.9757 17.6855 17.7012 21.9567 12.4281 21.9567Z" transform="translate(22.144)" fill="white"/>
<path d="M31.5572 4.82936C28.9145 6.2867 25.2796 7.63418 21.6547 8.20224C18.4296 8.70757 12.3621 7.48886 12.3621 6.04952C12.3621 5.5041 17.6835 7.39343 20.9024 6.53539C23.3707 5.87746 23.0203 3.57055 21.6777 3.26627C20.343 2.96358 12.523 0.101313 9.18272 0.00257751C7.60924 -0.0438784 3.72454 0.549326 1.84479 0.855194C1.20085 0.959885 0.79708 0.948371 0.756809 1.56408C0.56976 4.42555 0.201095 10.2771 0.000137772 13.3337C-0.00410128 13.3983 0.0857133 14.2668 0.803041 13.6556C1.58819 12.9867 2.68942 12.2452 3.70798 12.4761C5.30598 12.8383 19.1307 15.3688 21.0376 14.9259C23.7656 14.2923 31.488 9.71993 32.9686 8.29873C35.2635 6.09545 33.4795 3.76934 31.5572 4.82936Z" transform="translate(12.9175 26.0222)" fill="white"/>
<path d="M9.85929 0.357837L2.61686 0.00127755C2.05771 -0.0262519 1.48663 0.394762 1.34766 0.936483L0.030775 12.882C-0.108054 13.4239 0.236104 13.885 0.795527 13.9065L8.82191 13.9058C9.38147 13.9273 9.87399 13.4887 9.91691 12.931L10.7984 1.42182C10.841 0.864219 10.4184 0.385366 9.85929 0.357837ZM5.59559 12.3232C4.4896 12.3232 3.59317 11.4274 3.59317 10.3226C3.59317 9.21754 4.48973 8.32191 5.59559 8.32191C6.70146 8.32191 7.59802 9.21768 7.59802 10.3226C7.59802 11.4276 6.70159 12.3232 5.59559 12.3232Z" transform="translate(0 26.408)" fill="white"/>
</svg>

