<svg width="31" height="45" viewBox="0 0 31 45" fill="none" xmlns="http://www.w3.org/2000/svg">
<path d="M4.07774 8.17447C6.32982 8.17447 8.15549 6.34455 8.15549 4.08723C8.15549 1.82992 6.32982 0 4.07774 0C1.82567 0 0 1.82992 0 4.08723C0 6.34455 1.82567 8.17447 4.07774 8.17447Z" transform="translate(10.7153 3.20264)" fill="white"/>
<path d="M30.4841 32.7627C24.4317 25.1643 24.8709 25.6813 24.5939 25.4542L21.7981 14.0594L29.8211 3.14178C30.4656 2.26484 30.2787 1.03028 29.4038 0.384387C28.5291 -0.261506 27.2974 -0.0743801 26.6528 0.802657L18.5431 11.838C18.428 11.8611 13.5962 13.0384 13.3124 13.1486L3.37104 3.00484C2.60974 2.22787 1.36389 2.21672 0.588723 2.97999C-0.186442 3.74327 -0.197567 4.99191 0.563935 5.76888L11.8596 17.2945L13.3418 23.3355L14.984 30.0283L14.0731 33.2604L6.12399 31.8501C4.84106 31.6229 3.61482 32.481 3.38763 33.7681C3.16034 35.055 4.017 36.283 5.301 36.5108C16.1458 38.4348 15.4692 38.3306 15.7665 38.3306C16.8053 38.3306 17.7454 37.6409 18.0366 36.607C20.2903 28.61 20.1498 29.1636 20.1829 28.862L21.155 28.6224C21.2535 28.7666 20.8492 28.2527 25.5722 34.1822L19.639 41.0894C18.7883 42.0799 18.8996 43.574 19.8876 44.4268C20.8754 45.2792 22.3663 45.1685 23.2173 44.1776L30.428 35.7833C31.1691 34.9209 31.1925 33.652 30.4841 32.7627Z" fill="white"/>
</svg>

