<svg width="42" height="52" viewBox="0 0 42 52" fill="none" xmlns="http://www.w3.org/2000/svg">
<path d="M14.0276 0.527912C13.6964 0.19243 13.2347 2.83653e-07 12.7609 2.83653e-07C12.2804 2.83653e-07 11.8308 0.187347 11.4944 0.527912L5.22252 6.88334L3.0567 4.68833C2.71846 4.3466 2.26902 4.15838 1.79134 4.15838C1.31323 4.15838 0.863494 4.34689 0.524832 4.68978C0.186457 5.03282 -2.97414e-07 5.48884 -2.97414e-07 5.97362C-2.97414e-07 6.45884 0.1866 6.91486 0.524688 7.25731L3.95702 10.7357C4.29253 11.075 4.74198 11.2618 5.22224 11.2618C5.22238 11.2618 5.22238 11.2618 5.22238 11.2618C5.70293 11.2618 6.15223 11.0748 6.48932 10.7344L14.0279 3.09544C14.7261 2.38788 14.7263 1.23635 14.0276 0.527912Z" transform="translate(13.7373 19.0693)" fill="white"/>
<path d="M41.9147 10.7168C41.8863 10.3861 41.6887 10.0948 41.3941 9.94967L21.4075 0.0951986C21.1503 -0.0317329 20.8496 -0.0317329 20.5923 0.0951986L0.605852 9.94952C0.311333 10.0948 0.113553 10.3859 0.0853195 10.7166C0.0598088 11.0138 -0.513322 18.0943 1.69464 26.7424C2.99526 31.8366 4.99799 36.4066 7.64709 40.3254C10.9696 45.2401 15.3178 49.1324 20.5711 51.894C20.7055 51.9647 20.8529 52 21.0001 52C21.1473 52 21.2946 51.9647 21.429 51.894C26.6822 49.1324 31.0306 45.2402 34.3532 40.3254C37.0023 36.4066 39.005 31.8366 40.3055 26.7424C42.5133 18.0943 41.9402 11.0139 41.9147 10.7168ZM20.9999 36.5547C14.4663 36.5547 9.15093 31.1684 9.15093 24.5477C9.15093 17.9269 14.4663 12.5406 20.9999 12.5406C27.5335 12.5406 32.8489 17.9269 32.8489 24.5477C32.8489 31.1684 27.5335 36.5547 20.9999 36.5547Z" fill="white"/>
</svg>

