<svg width="21" height="19" viewBox="0 0 21 19" fill="none" xmlns="http://www.w3.org/2000/svg">
<path d="M19.7451 6.86391L13.195 6.26536L10.5932 0.312612C10.411 -0.104204 9.81118 -0.104204 9.62902 0.312612L7.02719 6.2654L0.477129 6.86391C0.0184955 6.90582 -0.166861 7.46787 0.179167 7.76736L5.1212 12.0449L3.67492 18.3677C3.57365 18.8104 4.05891 19.1577 4.45494 18.926L10.1111 15.6169L15.7673 18.926C16.1633 19.1577 16.6486 18.8104 16.5473 18.3677L15.101 12.0449L20.0431 7.76736C20.3891 7.46787 20.2037 6.90582 19.7451 6.86391Z" transform="translate(0.777832)" fill="#FFDC64"/>
<path d="M10.5932 0.312612C10.411 -0.104204 9.81118 -0.104204 9.62902 0.312612L7.02719 6.2654L0.477129 6.86391C0.0184955 6.90582 -0.166862 7.46787 0.179167 7.76736L5.1212 12.0449L3.67492 18.3677C3.57365 18.8104 4.05891 19.1577 4.45494 18.926L5.71736 18.1874C5.8921 11.101 9.2339 6.11072 11.8797 3.25597L10.5932 0.312612Z" transform="translate(0.777832)" fill="#FFC850"/>
</svg>

