<svg width="44" height="56" viewBox="0 0 44 56" fill="none" xmlns="http://www.w3.org/2000/svg">
<path d="M11.8443 28.9726C15.3788 28.9726 23.6887 24.7071 23.6887 14.4862C23.6887 13.0605 23.6541 11.6833 23.5369 10.3821C23.3445 7.82101 22.8215 5.55143 21.5191 3.81192C19.8488 1.44508 16.926 0 11.8443 0C6.76355 0 3.84107 1.44464 2.17076 3.8106C0.867602 5.55025 0.344141 7.82072 0.15178 10.3825C0.0347221 11.6836 8.94195e-09 13.0607 8.94195e-09 14.4862C8.94196e-09 24.7071 8.30991 28.9726 11.8443 28.9726ZM7.45403 4.79054C7.71217 4.31644 8.20662 4.02158 8.74429 4.02099C9.3643 4.02099 9.89494 4.40665 10.1124 4.9501H13.5747C13.6477 4.76674 13.757 4.59837 13.9001 4.45454C14.1774 4.1754 14.5471 4.02128 14.94 4.02084C15.4794 4.02069 15.9739 4.31394 16.2327 4.78628C16.248 4.8139 16.2474 4.84711 16.2313 4.87429C16.2155 4.90146 16.1863 4.91807 16.1551 4.91807L14.842 4.92027C14.8188 4.97581 14.7747 5.12992 14.7753 5.49722C14.7759 5.86451 14.8206 6.01848 14.844 6.07387L16.1572 6.07181C16.1887 6.07196 16.2172 6.08856 16.2333 6.11559C16.2496 6.14262 16.2499 6.17612 16.2351 6.20374C15.9767 6.67755 15.4822 6.97271 14.9445 6.9733L14.9425 6.973C14.3241 6.973 13.7939 6.58764 13.5765 6.0439H10.1141C10.0412 6.22725 9.93215 6.39576 9.78902 6.53945C9.51169 6.81859 9.14206 6.97286 8.74884 6.97359C8.74884 6.97344 8.74649 6.97359 8.74649 6.97359C8.2097 6.97359 7.71495 6.68034 7.45593 6.208C7.44069 6.18038 7.44157 6.14689 7.45739 6.11985C7.47307 6.09282 7.50237 6.07592 7.53372 6.07592L8.84655 6.07387C8.8697 6.01848 8.91409 5.86436 8.91321 5.49707C8.91263 5.12963 8.86794 4.97566 8.8445 4.92027L7.53138 4.92247V4.92262C7.50017 4.92233 7.47131 4.90573 7.4552 4.87869C7.43952 4.85166 7.43894 4.81846 7.45403 4.79054ZM1.76216 12.2701C1.89856 12.5695 2.47828 13.7202 3.37562 13.828C4.40716 13.952 6.11936 10.1645 11.8443 10.1554C17.5692 10.1646 19.2815 13.952 20.3131 13.828C21.2104 13.72 21.7901 12.5694 21.9265 12.2701C21.9544 13.0035 21.9645 13.7459 21.9645 14.4862C21.9645 19.4823 19.7647 22.5779 17.9192 24.2949C15.5938 26.4584 13.0123 27.2437 11.8443 27.2437C10.6764 27.2437 8.09469 26.4584 5.76951 24.2949C3.92399 22.5779 1.72422 19.4823 1.72422 14.4862C1.72422 13.7459 1.73433 13.0035 1.76216 12.2701Z" transform="translate(10.1558)" fill="white"/>
<path d="M43.9894 16.2024C43.3848 12.4319 42.14 7.57496 39.6429 5.84868C37.9385 4.67025 31.9911 1.48375 29.4515 0.12315L29.4049 0.098322C29.1145 -0.0572638 28.76 -0.0261172 28.5009 0.177804C27.1701 1.22547 25.7124 1.93156 24.1682 2.27623C23.8954 2.3372 23.6716 2.53157 23.5724 2.79353L21.9999 6.94997L20.4275 2.79353C20.3283 2.53157 20.1045 2.33705 19.8317 2.27623C18.2875 1.93156 16.8298 1.22547 15.4989 0.177804C15.2399 -0.0261172 14.8854 -0.0574107 14.595 0.098322C12.0848 1.4435 6.06283 4.69596 4.3644 5.84368C1.48997 7.78579 0.233252 14.8134 0.0105642 16.2025C-0.011558 16.3404 0.00118822 16.4813 0.0476303 16.6129C0.131724 16.8507 1.91015 21.4569 13.0247 23.1375C13.9962 24.8404 15.4474 26.2566 17.1826 27.1773C18.6567 27.9595 20.3265 28.3729 22.0119 28.3729C22.6719 28.3729 23.3327 28.3093 23.9761 28.1838C26.2004 27.7498 28.2545 26.5645 29.7601 24.846C30.2228 24.318 30.6279 23.7444 30.9722 23.1379C42.0893 21.4575 43.8681 16.8507 43.9522 16.6129C43.9988 16.4811 44.0116 16.3401 43.9894 16.2024ZM30.8402 18.5103C30.7318 20.4827 29.9519 22.3856 28.6517 23.8691C27.3663 25.3364 25.6069 26.3579 23.6944 26.7311C23.1392 26.8395 22.5754 26.893 22.0121 26.893C20.5775 26.893 19.1466 26.5453 17.8729 25.8693C16.1646 24.9628 14.774 23.4947 13.9615 21.7358C13.117 19.9074 12.9226 17.8039 13.4131 15.8497C13.8869 13.9601 14.9945 12.2566 16.5174 11.0487C18.0713 9.81618 20.0187 9.13684 21.9998 9.13684C22.8854 9.13684 23.7701 9.26951 24.6159 9.53249C26.4676 10.1077 28.1027 11.3036 29.2242 12.8879C30.3774 14.5171 30.9498 16.5158 30.8402 18.5103Z" transform="translate(0 27.627)" fill="white"/>
<path d="M6.79588e-07 2.06522C0.827754 2.22962 1.65067 2.47644 2.42246 2.81979C3.16817 3.15153 3.83638 3.61961 4.52979 4.04391C4.5774 4.07344 4.6256 4.10179 4.6738 4.13044C4.89341 3.4821 5.01428 2.78806 5.01428 2.06522C5.01428 1.34239 4.89341 0.648346 4.6738 -1.11193e-06C3.9634 0.425178 3.28801 0.909566 2.53497 1.25952C1.73257 1.63284 0.867017 1.89318 6.79588e-07 2.06522Z" transform="translate(23.3889 43.5771)" fill="white"/>
<path d="M0.0532876 0.0325759C-0.100543 -0.0615983 0.136063 0.0835563 0.0532876 0.0325759V0.0325759Z" transform="translate(27.8652 47.5889)" fill="white"/>
<path d="M2.59182 2.81993C3.36375 2.47659 4.18638 2.22977 5.01428 2.06537C4.13452 1.89083 3.25461 1.62564 2.4418 1.24234C1.70371 0.893995 1.03916 0.418272 0.340478 -2.15211e-06C0.120867 0.648345 -1.60955e-07 1.34253 -1.60955e-07 2.06537C-1.60955e-07 2.7882 0.120867 3.48239 0.340478 4.13074C0.388532 4.10194 0.436878 4.07358 0.484345 4.04405C1.1779 3.61975 1.84655 3.15167 2.59182 2.81993Z" transform="translate(15.5972 43.5771)" fill="white"/>
<path d="M0.0180186 0.0325759C-0.0644637 0.0835563 0.171849 -0.0615983 0.0180186 0.0325759V0.0325759Z" transform="translate(16.0635 47.5889)" fill="white"/>
<path d="M0.530495 1.86517e-06C0.551592 0.840077 0.643449 1.67868 0.574152 2.51875C0.498995 3.42803 0.292717 4.3401 4.82865e-07 5.20294C0.603601 4.5258 1.29335 3.90066 2.04418 3.39012C2.74243 2.91558 3.5192 2.58355 4.26198 2.18907C3.32713 1.07059 2.01942 0.277529 0.530495 1.86517e-06Z" transform="translate(22.6465 39.3315)" fill="white"/>
<path d="M4.26197 5.20294C3.96911 4.34024 3.76298 3.42817 3.68768 2.51875C3.61867 1.67868 3.71053 0.840076 3.73148 8.24977e-07C2.24255 0.277528 0.934994 1.07059 -7.69008e-07 2.18892C0.755232 2.59016 1.54489 2.92675 2.25222 3.41349C2.9887 3.92065 3.66687 4.53564 4.26197 5.20294Z" transform="translate(17.0918 39.3315)" fill="white"/>
<path d="M3.68768 2.68404C3.76313 1.77521 3.96823 0.862259 4.26197 -2.15211e-07C3.65779 0.676849 2.96834 1.30213 2.2175 1.81267C1.51955 2.28736 0.743072 2.6194 -7.69008e-07 3.01387C0.934847 4.13206 2.24255 4.92497 3.73133 5.2025C3.71038 4.36257 3.61867 3.52382 3.68768 2.68404Z" transform="translate(17.0918 46.751)" fill="white"/>
<path d="M-7.15356e-07 -2.15211e-07C0.293742 0.862259 0.498996 1.77506 0.574153 2.68404C0.64345 3.52382 0.551737 4.36257 0.530494 5.20264C2.01928 4.92512 3.32698 4.13206 4.26183 3.01387C3.50689 2.61264 2.71737 2.2759 2.01019 1.78931C1.27313 1.28215 0.595395 0.667153 -7.15356e-07 -2.15211e-07Z" transform="translate(22.6465 46.751)" fill="white"/>
</svg>

